<svg width="17" height="17" viewBox="0 0 17 17" fill="none" xmlns="http://www.w3.org/2000/svg">
<path fill-rule="evenodd" clip-rule="evenodd" d="M8.11177 1.43398C8.30482 1.43398 8.48839 1.51767 8.61501 1.6634L9.95945 3.21075L11.984 2.88959C12.1747 2.85935 12.3691 2.91324 12.517 3.03733C12.6649 3.16142 12.7517 3.34353 12.755 3.53655L12.7903 5.58607L14.5476 6.64139C14.713 6.74078 14.8274 6.90703 14.8609 7.09715C14.8944 7.28727 14.8439 7.48259 14.7224 7.63259L13.432 9.22529L14.0998 11.1633C14.1627 11.3458 14.1434 11.5466 14.0469 11.7138C13.9503 11.881 13.7861 11.9981 13.5966 12.0349L11.5843 12.4256L10.8502 14.3394C10.781 14.5197 10.6372 14.6611 10.4558 14.7271C10.2743 14.7931 10.0732 14.7773 9.90435 14.6837L8.11177 13.6894L6.31919 14.6837C6.15037 14.7773 5.94924 14.7931 5.76783 14.7271C5.58642 14.6611 5.44254 14.5197 5.3734 14.3394L4.63927 12.4256L2.62701 12.0349C2.4375 11.9981 2.27324 11.881 2.17671 11.7138C2.08018 11.5466 2.06087 11.3458 2.12377 11.1633L2.79159 9.22529L1.50121 7.63259C1.37968 7.48259 1.32915 7.28727 1.36267 7.09715C1.39619 6.90703 1.51049 6.74078 1.67599 6.64139L3.43328 5.58607L3.46856 3.53655C3.47189 3.34353 3.55872 3.16142 3.70661 3.03733C3.85449 2.91324 4.04891 2.85935 4.23958 2.88959L6.26409 3.21075L7.60852 1.6634C7.73514 1.51767 7.91872 1.43398 8.11177 1.43398ZM10.2499 7.57206C10.5101 7.31171 10.5101 6.8896 10.2499 6.62925C9.9895 6.3689 9.56739 6.3689 9.30704 6.62925L7.44511 8.49118L6.91651 7.96258C6.65616 7.70223 6.23405 7.70223 5.9737 7.96258C5.71335 8.22293 5.71335 8.64504 5.9737 8.90539L6.97371 9.90539C7.09873 10.0304 7.2683 10.1007 7.44511 10.1007C7.62192 10.1007 7.79149 10.0304 7.91651 9.90539L10.2499 7.57206Z" fill="black" fill-opacity="0.88"/>
</svg>
