<svg width="75" height="89" viewBox="0 0 75 89" fill="none" xmlns="http://www.w3.org/2000/svg">
<path d="M5.78671 23.4512C-2.65617 41.6149 17.8184 69.8762 37.9354 77.0552C59.0904 69.5059 80.6434 38.6397 68.5393 20.723C57.5557 4.46451 41.1014 14.8975 37.9354 17.1366C35.3701 15.3228 24.0869 8.13322 14.0559 14.1065" stroke="#CAB8FF" stroke-width="2.3" stroke-miterlimit="10" stroke-linecap="round"/>
<path d="M9.68132 17.6235C9.35216 17.928 9.02779 18.2521 8.70703 18.5978" stroke="#CAB8FF" stroke-width="2.3" stroke-miterlimit="10" stroke-linecap="round"/>
<path d="M48.7049 48.5437L48.7019 48.5407C47.877 47.7697 46.7366 47.569 45.7013 46.4557C44.5831 45.2529 44.6527 45.0004 43.9537 43.8234C42.7837 41.5681 40.4717 40.0322 37.8103 40.0322C35.1488 40.0322 33.0694 41.416 31.8505 43.4873C30.9218 44.9639 31.1159 45.1449 29.8985 46.4543C28.8633 47.5674 27.825 47.8944 27 48.6654C26.9956 48.6684 26.9926 48.673 26.9897 48.676C25.3191 50.0082 24.2542 52.1053 24.2972 54.4563C24.3653 58.2202 27.3318 61.3225 30.9944 61.4593C31.1618 61.4654 31.3292 61.4639 31.495 61.4593C31.5573 61.4654 31.6225 61.4685 31.698 61.4654C33.2738 61.4 35.5546 60.5013 37.7865 60.5013C40.0185 60.5013 41.6891 61.4441 44.398 61.4593C44.5579 61.4639 44.7179 61.4654 44.8808 61.4593C48.4753 61.324 51.4107 58.3312 51.5692 54.6419C51.6758 52.1358 50.5236 49.8987 48.7078 48.5422L48.7049 48.5437Z" stroke="#CAB8FF" stroke-width="2.3" stroke-miterlimit="10"/>
<path d="M32.1139 35.5498C34.2614 35.166 35.6119 32.4972 35.1303 29.5886C34.6486 26.68 32.5172 24.6333 30.3697 25.0169C28.2222 25.4006 26.8717 28.0696 27.3533 30.9781C27.835 33.8867 29.9663 35.9335 32.1139 35.5498Z" stroke="#CAB8FF" stroke-width="2.3" stroke-miterlimit="10"/>
<path d="M24.1436 44.7892C25.9304 43.7175 26.2887 40.8874 24.9439 38.4679C23.5991 36.0483 21.0604 34.9555 19.2736 36.0271C17.4869 37.0987 17.1285 39.9288 18.4733 42.3484C19.8182 44.7679 22.3569 45.8607 24.1436 44.7892Z" stroke="#CAB8FF" stroke-width="2.3" stroke-miterlimit="10"/>
<path d="M48.8685 30.9733C49.3502 28.0647 47.9997 25.3957 45.8522 25.0121C43.7046 24.6283 41.5733 26.6751 41.0916 29.5837C40.61 32.4923 41.9605 35.1612 44.108 35.5449C46.2555 35.9286 48.3869 33.8818 48.8685 30.9733Z" stroke="#CAB8FF" stroke-width="2.3" stroke-miterlimit="10"/>
<path d="M57.7515 42.3491C59.0963 39.9296 58.738 37.0994 56.9512 36.0278C55.1644 34.9563 52.6258 36.049 51.281 38.4686C49.9362 40.8882 50.2944 43.7183 52.0813 44.7898C53.868 45.8614 56.4066 44.7687 57.7515 42.3491Z" stroke="#CAB8FF" stroke-width="2.3" stroke-miterlimit="10"/>
</svg>
