<svg width="76" height="89" viewBox="0 0 76 89" fill="none" xmlns="http://www.w3.org/2000/svg">
<path d="M12.5654 44.7695V75.9393C12.5654 76.3329 12.7218 76.7104 13.0002 76.9888C13.2785 77.2671 13.6561 77.4235 14.0497 77.4235H61.5464C61.94 77.4235 62.3175 77.2671 62.5959 76.9888C62.8742 76.7104 63.0306 76.3329 63.0306 75.9393V44.7695" stroke="#CAB8FF" stroke-width="2.3" stroke-linecap="round" stroke-linejoin="round"/>
<path d="M3.66016 43.2858L35.7976 13.9448C36.3445 13.4458 37.0582 13.1692 37.7984 13.1692C38.5388 13.1692 39.2524 13.4458 39.7992 13.9448L71.9367 43.2858" stroke="#CAB8FF" stroke-width="2.3" stroke-linecap="round" stroke-linejoin="round"/>
<path d="M30.3284 41.4926C25.2818 44.6007 23.0258 49.4602 31.4802 54.7175C32.344 64.6384 37.1619 65.1668 42.7606 61.7322C47.8992 58.5796 53.1506 47.9997 52.8982 40.1894C52.8908 39.9626 52.8315 39.7406 52.7248 39.5403C52.6181 39.3399 52.467 39.1668 52.283 39.0341C52.0989 38.9013 51.8868 38.8126 51.6631 38.7746C51.4394 38.7367 51.21 38.7504 50.9924 38.815C43.2831 41.0979 36.2239 37.874 30.3284 41.4926Z" stroke="#CAB8FF" stroke-width="2.3" stroke-linecap="round" stroke-linejoin="round"/>
<path d="M19.9863 68.4298C19.9863 68.4298 33.226 48.6623 44.5332 46.0945" stroke="#CAB8FF" stroke-width="2.3" stroke-linecap="round" stroke-linejoin="round"/>
</svg> 