<svg width="75" height="89" viewBox="0 0 75 89" fill="none" xmlns="http://www.w3.org/2000/svg">
    <path d="M36.3041 73.4963L30.8241 71.2135C24.7713 68.6902 19.8554 61.7379 22.3787 55.6851L29.9099 57.9678C31.3494 58.5676 32.6567 59.4449 33.7571 60.5499C34.8575 61.6548 35.7295 62.9657 36.3232 64.4077C36.917 65.8496 37.221 67.3945 37.2176 68.9539C37.2143 70.5133 36.9039 72.0569 36.3041 73.4963Z" stroke="#CAB8FF" stroke-width="2.3" stroke-linecap="round" stroke-linejoin="round"/>
    <path d="M36.3041 60.1377L30.8241 57.8549C24.7713 55.3317 19.8554 48.3793 22.3787 42.3264L29.9099 44.6093C31.3494 45.209 32.6567 46.0863 33.7571 47.1913C34.8575 48.2963 35.7295 49.6071 36.3232 51.0492C36.917 52.4911 37.221 54.0359 37.2176 55.5953C37.2143 57.1547 36.9039 58.6983 36.3041 60.1377Z" stroke="#CAB8FF" stroke-width="2.3" stroke-linecap="round" stroke-linejoin="round"/>
    <path d="M36.3041 46.7793L30.8241 44.4965C24.7713 41.9733 19.8554 35.0209 22.3787 28.968L29.9099 31.2509C31.3494 31.8506 32.6567 32.7279 33.7571 33.8329C34.8575 34.9378 35.7295 36.2487 36.3232 37.6907C36.917 39.1326 37.221 40.6774 37.2176 42.2369C37.2143 43.7963 36.9039 45.3398 36.3041 46.7793Z" stroke="#CAB8FF" stroke-width="2.3" stroke-linecap="round" stroke-linejoin="round"/>
    <path d="M37.2217 36.3894V79.4333" stroke="#CAB8FF" stroke-width="2.3" stroke-linecap="round" stroke-linejoin="round"/>
    <path d="M52.0645 28.9681V20.0625" stroke="#CAB8FF" stroke-width="2.3" stroke-linecap="round" stroke-linejoin="round"/>
    <path d="M22.3789 28.9681V20.0625" stroke="#CAB8FF" stroke-width="2.3" stroke-linecap="round" stroke-linejoin="round"/>
    <path d="M43.1585 25.9997C43.1585 30.0994 37.2213 36.3897 37.2213 36.3897C37.2213 36.3897 31.2842 30.0994 31.2842 25.9997C31.2842 21.9002 37.2213 15.6099 37.2213 15.6099C37.2213 15.6099 43.1585 21.9002 43.1585 25.9997Z" stroke="#CAB8FF" stroke-width="2.3" stroke-linecap="round" stroke-linejoin="round"/>
    <path d="M37.2217 15.6096V11.1567" stroke="#CAB8FF" stroke-width="2.3" stroke-linecap="round" stroke-linejoin="round"/>
    <path d="M38.1382 73.4963L43.6181 71.2135C49.671 68.6902 54.6018 61.7379 52.0637 55.6851L44.5325 57.9678C43.093 58.5676 41.7857 59.4449 40.6852 60.5499C39.5849 61.6548 38.7129 62.9657 38.119 64.4077C37.5253 65.8496 37.2214 67.3945 37.2246 68.9539C37.2279 70.5133 37.5384 72.0569 38.1382 73.4963Z" stroke="#CAB8FF" stroke-width="2.3" stroke-linecap="round" stroke-linejoin="round"/>
    <path d="M38.1382 60.1377L43.6181 57.8549C49.671 55.3317 54.6018 48.3793 52.0637 42.3264L44.5325 44.6093C43.093 45.209 41.7857 46.0863 40.6852 47.1913C39.5849 48.2963 38.7129 49.6071 38.119 51.0492C37.5253 52.4911 37.2214 54.0359 37.2246 55.5953C37.2279 57.1547 37.5384 58.6983 38.1382 60.1377Z" stroke="#CAB8FF" stroke-width="2.3" stroke-linecap="round" stroke-linejoin="round"/>
    <path d="M38.1382 46.7793L43.6181 44.4965C49.671 41.9733 54.6018 35.0209 52.0637 28.968L44.5325 31.2509C43.093 31.8506 41.7857 32.7279 40.6852 33.8329C39.5849 34.9378 38.7129 36.2487 38.119 37.6907C37.5253 39.1326 37.2214 40.6774 37.2246 42.2369C37.2279 43.7963 37.5384 45.3398 38.1382 46.7793Z" stroke="#CAB8FF" stroke-width="2.3" stroke-linecap="round" stroke-linejoin="round"/>
    </svg>
    