<svg width="88" height="29" viewBox="0 0 88 29" fill="none" xmlns="http://www.w3.org/2000/svg">
<path d="M9.19036 21.7115V21.8398H0V21.7115C1.32215 21.1361 1.51532 18.9304 1.51532 13.8161C1.51532 10.2681 1.09617 8.31799 0 7.16724V7.03898C2.38643 7.35873 5.09543 6.75084 6.61075 5.34447H6.74014V9.72346C7.61125 7.13382 9.25505 5.56757 11.1257 5.56757C12.9964 5.56757 14.2858 7.03808 14.2858 9.01982C14.2858 10.8417 13.4475 12.3447 11.7062 12.3447C9.8036 12.3447 8.77212 10.8426 9.25505 8.3487C8.22357 8.44445 7.28777 9.05234 6.74014 10.139V13.8152C6.74014 18.9295 7.22399 21.1036 9.19127 21.7106L9.19036 21.7115Z" fill="black"/>
<path d="M22.9603 5.63261C27.3459 5.63261 29.8608 8.44535 29.8289 11.8976H19.9287C20.2832 15.6696 22.3152 18.1951 26.6042 18.1951C27.7332 18.1951 28.7965 18.0036 29.6358 17.5881L29.7004 17.6839C28.669 20.5608 25.9919 22.2869 22.7024 22.2869C17.9624 22.2869 14.7695 18.8988 14.7695 14.0392C14.7695 9.1797 18.4134 5.63261 22.9603 5.63261ZM19.9287 11.5146C20.7998 11.5788 21.4769 11.5788 21.9607 11.5788C23.9599 11.5788 24.8629 10.3964 24.8629 8.76601C24.8629 7.2955 24.1212 5.92075 22.7024 5.92075C20.7998 5.92075 19.8969 7.80675 19.8969 10.7794C19.8969 11.035 19.8969 11.2906 19.9287 11.5146Z" fill="black"/>
<path d="M32.148 22.6708V13.8161C32.148 10.2681 31.7289 8.318 30.6646 7.16725V7.03898C33.051 7.35874 35.7272 6.75084 37.2753 5.34447H37.4047V22.575C37.4047 26.954 35.2443 28.9999 32.2127 28.9999C29.8263 28.9999 28.0203 27.7209 27.4727 25.5476L27.5692 25.4519C28.0203 25.6434 28.4722 25.74 29.0208 25.74C30.5361 25.74 32.1489 25.133 32.1489 22.6717L32.148 22.6708ZM31.4063 3.13962C31.1484 1.79738 32.2446 0.454232 34.2119 0.134479C36.3076 -0.312634 37.8877 0.390101 38.1136 1.73234C38.3715 3.1071 37.2425 4.38521 35.2434 4.7691C33.1476 5.18459 31.6642 4.48096 31.4063 3.13871V3.13962Z" fill="black"/>
<path d="M48.3685 19.3143C49.1102 19.3143 49.7553 19.1228 50.2392 18.5474V14.1043C50.2392 9.85263 49.9166 7.83927 48.6592 7.03989V6.91162C51.0456 7.03989 53.3026 6.59187 55.4959 5.66513V13.7204C55.4959 17.7164 55.6572 19.6665 57.0112 20.7531V20.8814C54.4635 20.8814 52.0452 21.3927 50.4005 22.4793L50.2392 22.4151V18.8671C49.3362 20.913 47.5302 22.2878 45.08 22.2878C42.3063 22.2878 40.6944 20.4659 40.6944 17.1094V13.4015C40.6944 9.50126 40.3718 7.80765 39.2109 7.03989V6.91162C41.5327 6.97575 43.7578 6.59187 45.9502 5.66513V15.3191C45.9502 18.1644 46.7238 19.3152 48.3685 19.3152V19.3143Z" fill="black"/>
<path d="M65.202 22.4151L60.4938 12.7611C58.4618 8.63775 57.7848 7.0715 56.5273 6.2405V6.11224H65.3632V6.2405C64.8147 6.56025 64.4921 7.03988 64.4921 7.77514C64.4921 8.7344 65.0726 10.1083 66.1687 12.314L68.0066 16.1818L68.5224 14.9027C69.3935 12.697 69.8126 11.035 69.8126 9.75598C69.8126 7.74172 68.8777 6.59097 67.7807 6.2396V6.11134H74.1982V6.2396C72.5535 7.2946 70.7475 10.3955 67.8782 17.2359L65.7177 22.4142H65.202V22.4151Z" fill="black"/>
<path d="M81.1322 5.63261C85.5178 5.63261 88.0327 8.44535 88.0008 11.8976H78.1006C78.4551 15.6696 80.487 18.1951 84.7761 18.1951C85.905 18.1951 86.9684 18.0036 87.8076 17.5881L87.8723 17.6839C86.8408 20.5608 84.1637 22.2869 80.8743 22.2869C76.1342 22.2869 72.9414 18.8988 72.9414 14.0392C72.9414 9.1797 76.5853 5.63261 81.1322 5.63261ZM78.1006 11.5146C78.9708 11.5788 79.6487 11.5788 80.1317 11.5788C82.1309 11.5788 83.0339 10.3964 83.0339 8.76601C83.0339 7.2955 82.2921 5.92075 80.8734 5.92075C78.9708 5.92075 78.0678 7.80675 78.0678 10.7794C78.0678 11.035 78.0678 11.2906 78.0997 11.5146H78.1006Z" fill="black"/>
</svg>
