<svg width="75" height="89" viewBox="0 0 75 89" fill="none" xmlns="http://www.w3.org/2000/svg">
<path d="M24.8158 70.5905C21.2857 70.6008 17.895 69.2134 15.3848 66.7314" stroke="#CAB8FF" stroke-width="2.3" stroke-linecap="round" stroke-linejoin="round"/>
<path d="M24.8691 52.4334C24.8691 54.9155 25.358 57.3732 26.3079 59.6664C27.2578 61.9595 28.65 64.0431 30.4051 65.7982C32.1602 67.5533 34.2438 68.9456 36.5369 69.8954C38.8301 70.8453 41.2878 71.3342 43.7699 71.3342C46.252 71.3342 48.7098 70.8453 51.003 69.8954C53.2961 68.9456 55.3797 67.5533 57.1348 65.7982C58.8899 64.0431 60.282 61.9595 61.232 59.6664C62.1818 57.3732 62.6707 54.9155 62.6707 52.4334C62.6707 47.4207 60.6793 42.6131 57.1348 39.0685C53.5902 35.524 48.7827 33.5327 43.7699 33.5327C38.7571 33.5327 33.9496 35.524 30.4051 39.0685C26.8605 42.6131 24.8691 47.4207 24.8691 52.4334Z" stroke="#CAB8FF" stroke-width="2.3" stroke-linecap="round" stroke-linejoin="round"/>
<path d="M70.7673 79.4336L57.1328 65.7991" stroke="#CAB8FF" stroke-width="2.3" stroke-linecap="round" stroke-linejoin="round"/>
<path d="M38.915 42.3835C39.1118 42.3835 39.3006 42.4618 39.4398 42.6009C39.5789 42.7401 39.6572 42.9289 39.6572 43.1258" stroke="#CAB8FF" stroke-width="2.3" stroke-linecap="round" stroke-linejoin="round"/>
<path d="M38.1729 43.1258C38.1725 43.0281 38.1915 42.9315 38.2286 42.8413C38.2657 42.7511 38.3204 42.6691 38.3894 42.6C38.4584 42.5311 38.5404 42.4764 38.6306 42.4393C38.7208 42.4022 38.8174 42.3832 38.9151 42.3836" stroke="#CAB8FF" stroke-width="2.3" stroke-linecap="round" stroke-linejoin="round"/>
<path d="M38.9151 43.8679C38.8174 43.8682 38.7208 43.8492 38.6306 43.8121C38.5404 43.775 38.4584 43.7203 38.3894 43.6514C38.3204 43.5824 38.2657 43.5003 38.2286 43.4101C38.1915 43.3199 38.1725 43.2233 38.1729 43.1257" stroke="#CAB8FF" stroke-width="2.3" stroke-linecap="round" stroke-linejoin="round"/>
<path d="M39.6572 43.1257C39.6572 43.3225 39.5789 43.5113 39.4398 43.6505C39.3006 43.7896 39.1118 43.8679 38.915 43.8679" stroke="#CAB8FF" stroke-width="2.3" stroke-linecap="round" stroke-linejoin="round"/>
<path d="M32.9775 52.7734C33.1743 52.7734 33.3632 52.8516 33.5023 52.9908C33.6415 53.1299 33.7197 53.3187 33.7197 53.5156" stroke="#CAB8FF" stroke-width="2.3" stroke-linecap="round" stroke-linejoin="round"/>
<path d="M32.2354 53.5156C32.235 53.418 32.2539 53.3213 32.2911 53.2311C32.3282 53.1408 32.3829 53.0589 32.4518 52.9899C32.5208 52.9209 32.6028 52.8663 32.693 52.8292C32.7832 52.792 32.8799 52.7731 32.9775 52.7734" stroke="#CAB8FF" stroke-width="2.3" stroke-linecap="round" stroke-linejoin="round"/>
<path d="M32.9775 54.2577C32.8799 54.2581 32.7832 54.2392 32.693 54.2021C32.6028 54.1649 32.5208 54.1102 32.4518 54.0413C32.3829 53.9723 32.3282 53.8903 32.2911 53.8001C32.2539 53.7099 32.235 53.6132 32.2354 53.5156" stroke="#CAB8FF" stroke-width="2.3" stroke-linecap="round" stroke-linejoin="round"/>
<path d="M33.7197 53.5156C33.7197 53.7124 33.6415 53.9012 33.5023 54.0404C33.3632 54.1796 33.1743 54.2577 32.9775 54.2577" stroke="#CAB8FF" stroke-width="2.3" stroke-linecap="round" stroke-linejoin="round"/>
<path d="M40.3984 61.679C40.5952 61.679 40.7841 61.7572 40.9232 61.8963C41.0624 62.0355 41.1406 62.2243 41.1406 62.4211" stroke="#CAB8FF" stroke-width="2.3" stroke-linecap="round" stroke-linejoin="round"/>
<path d="M39.6563 62.4211C39.6559 62.3236 39.6748 62.2269 39.7119 62.1367C39.7491 62.0465 39.8038 61.9644 39.8727 61.8954C39.9417 61.8265 40.0237 61.7718 40.1139 61.7347C40.2041 61.6976 40.3008 61.6786 40.3984 61.679" stroke="#CAB8FF" stroke-width="2.3" stroke-linecap="round" stroke-linejoin="round"/>
<path d="M40.3984 63.1636C40.3008 63.164 40.2041 63.145 40.1139 63.1079C40.0237 63.0708 39.9417 63.0161 39.8727 62.9471C39.8038 62.878 39.7491 62.7961 39.7119 62.7059C39.6748 62.6157 39.6559 62.519 39.6563 62.4214" stroke="#CAB8FF" stroke-width="2.3" stroke-linecap="round" stroke-linejoin="round"/>
<path d="M41.1406 62.4214C41.1406 62.6183 41.0624 62.807 40.9232 62.9462C40.7841 63.0854 40.5952 63.1636 40.3984 63.1636" stroke="#CAB8FF" stroke-width="2.3" stroke-linecap="round" stroke-linejoin="round"/>
<path d="M44.8516 51.2896C45.0484 51.2896 45.2372 51.3677 45.3763 51.5069C45.5155 51.646 45.5937 51.8349 45.5937 52.0317" stroke="#CAB8FF" stroke-width="2.3" stroke-linecap="round" stroke-linejoin="round"/>
<path d="M44.1094 52.0312C44.109 51.9336 44.1279 51.8369 44.1651 51.7467C44.2022 51.6565 44.2569 51.5745 44.3259 51.5056C44.3948 51.4366 44.4768 51.3819 44.567 51.3447C44.6572 51.3076 44.754 51.2887 44.8515 51.2891" stroke="#CAB8FF" stroke-width="2.3" stroke-linecap="round" stroke-linejoin="round"/>
<path d="M44.8515 52.7736C44.754 52.774 44.6572 52.7551 44.567 52.7179C44.4768 52.6808 44.3948 52.6261 44.3259 52.5571C44.2569 52.4881 44.2022 52.4061 44.1651 52.316C44.1279 52.2258 44.109 52.129 44.1094 52.0315" stroke="#CAB8FF" stroke-width="2.3" stroke-linecap="round" stroke-linejoin="round"/>
<path d="M45.5937 52.0315C45.5937 52.2283 45.5155 52.417 45.3763 52.5562C45.2372 52.6954 45.0484 52.7736 44.8516 52.7736" stroke="#CAB8FF" stroke-width="2.3" stroke-linecap="round" stroke-linejoin="round"/>
<path d="M53.7568 58.7107C53.9537 58.7107 54.1425 58.7889 54.2817 58.9281C54.4208 59.0673 54.4991 59.256 54.4991 59.4529" stroke="#CAB8FF" stroke-width="2.3" stroke-linecap="round" stroke-linejoin="round"/>
<path d="M53.0156 59.4528C53.0152 59.3552 53.0341 59.2585 53.0714 59.1683C53.1085 59.0781 53.1631 58.9962 53.2321 58.9272C53.3011 58.8581 53.3831 58.8035 53.4734 58.7663C53.5636 58.7292 53.6602 58.7103 53.7577 58.7107" stroke="#CAB8FF" stroke-width="2.3" stroke-linecap="round" stroke-linejoin="round"/>
<path d="M53.7577 60.195C53.6602 60.1954 53.5636 60.1765 53.4734 60.1393C53.3831 60.1021 53.3011 60.0475 53.2321 59.9785C53.1631 59.9095 53.1085 59.8275 53.0714 59.7373C53.0341 59.6471 53.0152 59.5504 53.0156 59.4529" stroke="#CAB8FF" stroke-width="2.3" stroke-linecap="round" stroke-linejoin="round"/>
<path d="M54.4991 59.4529C54.4991 59.6497 54.4208 59.8384 54.2817 59.9776C54.1425 60.1168 53.9537 60.195 53.7568 60.195" stroke="#CAB8FF" stroke-width="2.3" stroke-linecap="round" stroke-linejoin="round"/>
<path d="M52.2734 45.3521C52.4702 45.3521 52.6591 45.4303 52.7982 45.5694C52.9374 45.7086 53.0156 45.8974 53.0156 46.0942" stroke="#CAB8FF" stroke-width="2.3" stroke-linecap="round" stroke-linejoin="round"/>
<path d="M51.5313 46.0942C51.5309 45.9966 51.5498 45.9 51.5869 45.8098C51.6241 45.7196 51.6788 45.6375 51.7477 45.5685C51.8167 45.4996 51.8987 45.4449 51.9889 45.4078C52.0791 45.3706 52.1758 45.3517 52.2734 45.3521" stroke="#CAB8FF" stroke-width="2.3" stroke-linecap="round" stroke-linejoin="round"/>
<path d="M52.2734 46.8366C52.1758 46.8371 52.0791 46.8181 51.9889 46.781C51.8987 46.7438 51.8167 46.6892 51.7477 46.6201C51.6788 46.5511 51.6241 46.4692 51.5869 46.379C51.5498 46.2888 51.5309 46.1921 51.5313 46.0945" stroke="#CAB8FF" stroke-width="2.3" stroke-linecap="round" stroke-linejoin="round"/>
<path d="M53.0156 46.0945C53.0156 46.2913 52.9374 46.4801 52.7982 46.6192C52.6591 46.7585 52.4702 46.8366 52.2734 46.8366" stroke="#CAB8FF" stroke-width="2.3" stroke-linecap="round" stroke-linejoin="round"/>
<path d="M35.8124 28.7599C32.7174 23.0446 29.4717 17.4122 26.0785 11.8688C25.9458 11.652 25.7598 11.4729 25.5381 11.3487C25.3164 11.2244 25.0665 11.1592 24.8124 11.1592C24.5582 11.1592 24.3084 11.2244 24.0867 11.3487C23.865 11.4729 23.6789 11.652 23.5463 11.8688C18.8264 19.5989 2.5498 46.8798 2.5498 57.3232C2.5827 61.2508 3.65253 65.1001 5.65104 68.4813C7.64956 71.8627 10.5058 74.6561 13.9308 76.5789C17.3558 78.5016 21.2278 79.4856 25.1553 79.431C29.0827 79.3765 32.9259 78.2855 36.2962 76.2684" stroke="#CAB8FF" stroke-width="2.3" stroke-linecap="round" stroke-linejoin="round"/>
</svg> 