<svg width="75" height="89" viewBox="0 0 75 89" fill="none" xmlns="http://www.w3.org/2000/svg">
<path d="M59.5539 73.2588C59.0547 74.2224 58.301 75.0307 57.3746 75.5959C56.4484 76.1612 55.3847 76.4617 54.2996 76.4648H20.6957C19.6107 76.4596 18.5477 76.1581 17.6216 75.593C16.6953 75.0281 15.941 74.2208 15.4399 73.2584C14.9389 72.296 14.7102 71.2151 14.7784 70.1322C14.8467 69.0494 15.2093 68.0058 15.8272 67.1139L22.8331 55.6851H52.1623L59.168 67.1139C59.7879 68.0051 60.1517 69.049 60.2197 70.1324C60.2877 71.2159 60.0575 72.2971 59.5539 73.2588Z" stroke="#CAB8FF" stroke-width="2.3" stroke-linecap="round" stroke-linejoin="round"/>
<path d="M52.1623 55.685H22.833L30.0763 43.8109V20.0625H44.919V43.8109L52.1623 55.685Z" stroke="#CAB8FF" stroke-width="2.3" stroke-linecap="round" stroke-linejoin="round"/>
<path d="M50.8555 17.094C50.8555 17.8814 50.5428 18.6364 49.986 19.1931C49.4293 19.7499 48.6743 20.0626 47.887 20.0626H27.1071C26.3198 20.0626 25.5648 19.7499 25.0081 19.1931C24.4514 18.6364 24.1387 17.8814 24.1387 17.094C24.1387 16.3067 24.4514 15.5517 25.0081 14.995C25.5648 14.4382 26.3198 14.1255 27.1071 14.1255H47.887C48.6743 14.1255 49.4293 14.4382 49.986 14.995C50.5428 15.5517 50.8555 16.3067 50.8555 17.094Z" stroke="#CAB8FF" stroke-width="2.3" stroke-linecap="round" stroke-linejoin="round"/>
<path d="M44.9186 25.9995H38.9814" stroke="#CAB8FF" stroke-width="2.3" stroke-linecap="round" stroke-linejoin="round"/>
<path d="M44.9186 37.8738H38.9814" stroke="#CAB8FF" stroke-width="2.3" stroke-linecap="round" stroke-linejoin="round"/>
<path d="M44.9193 31.9368H36.0137" stroke="#CAB8FF" stroke-width="2.3" stroke-linecap="round" stroke-linejoin="round"/>
<path d="M25.623 66.0749C25.623 67.2559 26.0922 68.3884 26.9272 69.2235C27.7623 70.0586 28.8949 70.5278 30.0759 70.5278C31.2568 70.5278 32.3894 70.0586 33.2245 69.2235C34.0595 68.3884 34.5287 67.2559 34.5287 66.0749C34.5287 64.8939 34.0595 63.7613 33.2245 62.9263C32.3894 62.0912 31.2568 61.6221 30.0759 61.6221C28.8949 61.6221 27.7623 62.0912 26.9272 62.9263C26.0922 63.7613 25.623 64.8939 25.623 66.0749Z" stroke="#CAB8FF" stroke-width="2.3" stroke-linecap="round" stroke-linejoin="round"/>
<path d="M47.8867 69.7854C48.0835 69.7854 48.2722 69.8636 48.4115 70.0028C48.5506 70.142 48.6288 70.3307 48.6288 70.5276" stroke="#CAB8FF" stroke-width="2.3" stroke-linecap="round" stroke-linejoin="round"/>
<path d="M47.1445 70.5276C47.1445 70.3307 47.2228 70.142 47.3619 70.0028C47.5011 69.8636 47.6898 69.7854 47.8867 69.7854" stroke="#CAB8FF" stroke-width="2.3" stroke-linecap="round" stroke-linejoin="round"/>
<path d="M47.8867 71.2697C47.6898 71.2697 47.5011 71.1915 47.3619 71.0523C47.2228 70.9131 47.1445 70.7244 47.1445 70.5276" stroke="#CAB8FF" stroke-width="2.3" stroke-linecap="round" stroke-linejoin="round"/>
<path d="M48.6288 70.5276C48.6288 70.7244 48.5506 70.9131 48.4115 71.0523C48.2722 71.1915 48.0835 71.2697 47.8867 71.2697" stroke="#CAB8FF" stroke-width="2.3" stroke-linecap="round" stroke-linejoin="round"/>
<path d="M41.9492 60.8801C42.146 60.8801 42.3348 60.9584 42.474 61.0975C42.6132 61.2367 42.6913 61.4254 42.6913 61.6222" stroke="#CAB8FF" stroke-width="2.3" stroke-linecap="round" stroke-linejoin="round"/>
<path d="M41.207 61.6222C41.207 61.4254 41.2852 61.2367 41.4244 61.0975C41.5635 60.9584 41.7523 60.8801 41.9491 60.8801" stroke="#CAB8FF" stroke-width="2.3" stroke-linecap="round" stroke-linejoin="round"/>
<path d="M41.9491 62.3642C41.7523 62.3642 41.5635 62.2861 41.4244 62.1468C41.2852 62.0077 41.207 61.8189 41.207 61.6221" stroke="#CAB8FF" stroke-width="2.3" stroke-linecap="round" stroke-linejoin="round"/>
<path d="M42.6913 61.6221C42.6913 61.8189 42.6132 62.0077 42.474 62.1468C42.3348 62.2861 42.146 62.3642 41.9492 62.3642" stroke="#CAB8FF" stroke-width="2.3" stroke-linecap="round" stroke-linejoin="round"/>
</svg> 