<svg width="75" height="89" viewBox="0 0 75 89" fill="none" xmlns="http://www.w3.org/2000/svg">
<path d="M3.22168 25.9972C3.22168 27.1782 3.69082 28.3108 4.52589 29.1459C5.36095 29.9809 6.49354 30.45 7.6745 30.45C8.85546 30.45 9.98801 29.9809 10.8231 29.1459C11.6581 28.3108 12.1274 27.1782 12.1274 25.9972C12.1274 24.8163 11.6581 23.6837 10.8231 22.8486C9.98801 22.0136 8.85546 21.5444 7.6745 21.5444C6.49354 21.5444 5.36095 22.0136 4.52589 22.8486C3.69082 23.6837 3.22168 24.8163 3.22168 25.9972Z" stroke="#CAB8FF" stroke-width="2.3" stroke-linecap="round" stroke-linejoin="round"/>
<path d="M62.5918 15.6074C62.5918 16.7883 63.0609 17.9209 63.896 18.756C64.731 19.591 65.8637 20.0601 67.0446 20.0601C68.2256 20.0601 69.3581 19.591 70.1932 18.756C71.0283 17.9209 71.4975 16.7883 71.4975 15.6074C71.4975 14.4264 71.0283 13.2938 70.1932 12.4587C69.3581 11.6237 68.2256 11.1545 67.0446 11.1545C65.8637 11.1545 64.731 11.6237 63.896 12.4587C63.0609 13.2938 62.5918 14.4264 62.5918 15.6074Z" stroke="#CAB8FF" stroke-width="2.3" stroke-linecap="round" stroke-linejoin="round"/>
<path d="M3.22168 74.978C3.22168 76.1589 3.69082 77.2915 4.52589 78.1266C5.36095 78.9616 6.49354 79.4308 7.6745 79.4308C8.85546 79.4308 9.98801 78.9616 10.8231 78.1266C11.6581 77.2915 12.1274 76.1589 12.1274 74.978C12.1274 73.797 11.6581 72.6644 10.8231 71.8293C9.98801 70.9943 8.85546 70.5251 7.6745 70.5251C6.49354 70.5251 5.36095 70.9943 4.52589 71.8293C3.69082 72.6644 3.22168 73.797 3.22168 74.978Z" stroke="#CAB8FF" stroke-width="2.3" stroke-linecap="round" stroke-linejoin="round"/>
<path d="M37.3564 74.978C37.3564 76.1589 37.8256 77.2915 38.6606 78.1266C39.4957 78.9616 40.6283 79.4308 41.8093 79.4308C42.9902 79.4308 44.1228 78.9616 44.9579 78.1266C45.7929 77.2915 46.2621 76.1589 46.2621 74.978C46.2621 73.797 45.7929 72.6644 44.9579 71.8293C44.1228 70.9943 42.9902 70.5251 41.8093 70.5251C40.6283 70.5251 39.4957 70.9943 38.6606 71.8293C37.8256 72.6644 37.3564 73.797 37.3564 74.978Z" stroke="#CAB8FF" stroke-width="2.3" stroke-linecap="round" stroke-linejoin="round"/>
<path d="M10.8203 71.8291L33.4406 49.2651" stroke="#CAB8FF" stroke-width="2.3" stroke-linecap="round" stroke-linejoin="round"/>
<path d="M50.2236 32.4592L63.8938 18.7563" stroke="#CAB8FF" stroke-width="2.3" stroke-linecap="round" stroke-linejoin="round"/>
<path d="M11.6826 27.9263L30.8951 36.1639" stroke="#CAB8FF" stroke-width="2.3" stroke-linecap="round" stroke-linejoin="round"/>
<path d="M62.7754 51.3146L52.0352 46.8767" stroke="#CAB8FF" stroke-width="2.3" stroke-linecap="round" stroke-linejoin="round"/>
<path d="M41.8096 70.5253V52.7141" stroke="#CAB8FF" stroke-width="2.3" stroke-linecap="round" stroke-linejoin="round"/>
<path d="M62.5918 52.7143C62.5918 53.8952 63.0609 55.0278 63.896 55.8629C64.731 56.698 65.8637 57.1671 67.0446 57.1671C68.2256 57.1671 69.3581 56.698 70.1932 55.8629C71.0283 55.0278 71.4975 53.8952 71.4975 52.7143C71.4975 51.5332 71.0283 50.4007 70.1932 49.5657C69.3581 48.7306 68.2256 48.2615 67.0446 48.2615C65.8637 48.2615 64.731 48.7306 63.896 49.5657C63.0609 50.4007 62.5918 51.5332 62.5918 52.7143Z" stroke="#CAB8FF" stroke-width="2.3" stroke-linecap="round" stroke-linejoin="round"/>
<path d="M29.9355 40.84C29.9355 42.3993 30.2426 43.9434 30.8394 45.384C31.4362 46.8247 32.3108 48.1336 33.4134 49.2362C34.516 50.3389 35.825 51.2136 37.2656 51.8102C38.7063 52.407 40.2504 52.7142 41.8097 52.7142C43.3691 52.7142 44.9131 52.407 46.3537 51.8102C47.7944 51.2136 49.1034 50.3389 50.206 49.2362C51.3087 48.1336 52.1833 46.8247 52.7801 45.384C53.3767 43.9434 53.6839 42.3993 53.6839 40.84C53.6839 39.2806 53.3767 37.7366 52.7801 36.2959C52.1833 34.8553 51.3087 33.5463 50.206 32.4437C49.1034 31.341 47.7944 30.4664 46.3537 29.8697C44.9131 29.2729 43.3691 28.9658 41.8097 28.9658C40.2504 28.9658 38.7063 29.2729 37.2656 29.8697C35.825 30.4664 34.516 31.341 33.4134 32.4437C32.3108 33.5463 31.4362 34.8553 30.8394 36.2959C30.2426 37.7366 29.9355 39.2806 29.9355 40.84Z" stroke="#CAB8FF" stroke-width="2.3" stroke-linecap="round" stroke-linejoin="round"/>
</svg> 