<svg width="55" height="56" viewBox="0 0 55 56" fill="none" xmlns="http://www.w3.org/2000/svg">
<path d="M2.19922 30.5224H14.6992C14.8679 30.5224 15.0344 30.488 15.1853 30.4219C15.3362 30.3558 15.4675 30.2599 15.5688 30.1418L17.5818 27.7934C17.686 27.6716 17.8221 27.5734 17.9785 27.5071C18.135 27.4409 18.3074 27.4084 18.4811 27.4125C18.6549 27.4166 18.825 27.4572 18.9772 27.5307C19.1294 27.6043 19.2592 27.7087 19.3557 27.8352L21.8122 31.0704C21.9179 31.209 22.0633 31.3208 22.2339 31.3948C22.4044 31.4687 22.5941 31.5021 22.7841 31.4917C22.974 31.4813 23.1575 31.4274 23.3162 31.3355C23.4749 31.2435 23.6032 31.1167 23.6883 30.9677L27.0362 25.1062C27.134 24.9347 27.2888 24.7931 27.4802 24.6999C27.6716 24.6068 27.8907 24.5664 28.1088 24.5841C28.3269 24.6018 28.5337 24.6767 28.7023 24.7991C28.8709 24.9215 28.9933 25.0856 29.0535 25.2699L31.8666 33.8889C31.9265 34.0733 32.0488 34.2376 32.2172 34.3602C32.3857 34.4828 32.5925 34.5579 32.8106 34.5758C33.0287 34.5937 33.2479 34.5535 33.4394 34.4605C33.631 34.3675 33.7859 34.2259 33.884 34.0545L35.5949 31.059C35.6849 30.9008 35.8235 30.7677 35.9952 30.6746C36.1668 30.5815 36.3647 30.5321 36.5666 30.5319H52.1992" stroke="#CAB8FF" stroke-width="1.75" stroke-linecap="round" stroke-linejoin="round"/>
<path d="M47.4721 27.5801C49.1645 24.5665 50.0957 21.2539 50.1992 17.879C50.1992 2.73355 32.9181 3.51639 27.1992 16.042C21.8891 3.51638 4.19922 2.73355 4.19922 19.0432C4.24085 21.9784 4.91867 24.8782 6.19474 27.5801" stroke="#CAB8FF" stroke-width="1.75" stroke-linecap="round" stroke-linejoin="round"/>
<path d="M11.1992 34.5801C15.5725 39.4831 20.7469 43.8032 26.558 47.403C26.7547 47.5245 26.9919 47.5865 27.233 47.5796C27.4742 47.5726 27.7061 47.4971 27.8932 47.3646C33.1931 43.5788 37.9914 39.2908 42.1992 34.5801" stroke="#CAB8FF" stroke-width="1.75" stroke-linecap="round" stroke-linejoin="round"/>
</svg>
