<svg width="55" height="56" viewBox="0 0 55 56" fill="none" xmlns="http://www.w3.org/2000/svg">
<path d="M1.9707 49.2814C19.5207 49.2814 15.1332 53.6689 23.9082 53.6689H38.1676C39.0403 53.6689 39.8773 53.3222 40.4944 52.7051C41.1115 52.088 41.4582 51.251 41.4582 50.3783C41.4582 49.5055 41.1115 48.6686 40.4944 48.0514C39.8773 47.4343 39.0403 47.0876 38.1676 47.0876H40.3613C41.234 47.0876 42.071 46.741 42.6881 46.1238C43.3052 45.5067 43.6519 44.6697 43.6519 43.797C43.6519 42.9243 43.3052 42.0873 42.6881 41.4702C42.071 40.8531 41.234 40.5064 40.3613 40.5064H42.5551C43.4278 40.5064 44.2648 40.1597 44.8819 39.5426C45.499 38.9255 45.8457 38.0885 45.8457 37.2158C45.8457 36.343 45.499 35.5061 44.8819 34.8889C44.2648 34.2718 43.4278 33.9251 42.5551 33.9251H44.7488C45.6215 33.9251 46.4585 33.5784 47.0756 32.9613C47.6927 32.3442 48.0394 31.5072 48.0394 30.6345C48.0394 29.7618 47.6927 28.9248 47.0756 28.3077C46.4585 27.6906 45.6215 27.3439 44.7488 27.3439H27.1988C28.3218 23.1937 29.0563 18.9481 29.3926 14.6618C29.3926 8.08055 22.8113 8.5193 22.8113 11.9876C22.8472 16.4661 21.1586 20.7867 18.0955 24.054C15.0324 27.3213 10.8296 29.2848 6.3582 29.5376H1.9707" stroke="#CAB8FF" stroke-width="1.75" stroke-linecap="round" stroke-linejoin="round"/>
<path d="M8.55273 18.5682V14.1807" stroke="#CAB8FF" stroke-width="1.75" stroke-linecap="round" stroke-linejoin="round"/>
<path d="M6.35938 16.375H10.7469" stroke="#CAB8FF" stroke-width="1.75" stroke-linecap="round" stroke-linejoin="round"/>
<path d="M17.3281 7.59941V3.21191" stroke="#CAB8FF" stroke-width="1.75" stroke-linecap="round" stroke-linejoin="round"/>
<path d="M15.1348 5.40625H19.5223" stroke="#CAB8FF" stroke-width="1.75" stroke-linecap="round" stroke-linejoin="round"/>
<path d="M39.2637 11.9871V7.59961" stroke="#CAB8FF" stroke-width="1.75" stroke-linecap="round" stroke-linejoin="round"/>
<path d="M37.0703 9.79395H41.4578" stroke="#CAB8FF" stroke-width="1.75" stroke-linecap="round" stroke-linejoin="round"/>
<path d="M50.2344 22.9559V18.5684" stroke="#CAB8FF" stroke-width="1.75" stroke-linecap="round" stroke-linejoin="round"/>
<path d="M48.0391 20.7627H52.4266" stroke="#CAB8FF" stroke-width="1.75" stroke-linecap="round" stroke-linejoin="round"/>
</svg>
