<svg width="55" height="56" viewBox="0 0 55 56" fill="none" xmlns="http://www.w3.org/2000/svg">
<path d="M40.8002 53.6379C40.346 50.3534 38.7186 47.3442 36.2186 45.1661C33.7185 42.9879 30.5148 41.7881 27.199 41.7881C23.8832 41.7881 20.6794 42.9879 18.1794 45.1661C15.6794 47.3442 14.0519 50.3534 13.5977 53.6379" stroke="#CAB8FF" stroke-width="1.75" stroke-linecap="round" stroke-linejoin="round"/>
<path d="M19.2617 30.3979C19.2617 31.4402 19.467 32.4723 19.8658 33.4353C20.2647 34.3982 20.8493 35.2732 21.5864 36.0102C22.3234 36.7472 23.1983 37.3319 24.1613 37.7307C25.1243 38.1296 26.1564 38.3349 27.1987 38.3349C28.241 38.3349 29.2731 38.1296 30.236 37.7307C31.199 37.3319 32.0739 36.7472 32.811 36.0102C33.548 35.2732 34.1326 34.3982 34.5315 33.4353C34.9304 32.4723 35.1357 31.4402 35.1356 30.3979C35.1357 29.3556 34.9304 28.3235 34.5315 27.3606C34.1326 26.3976 33.548 25.5226 32.811 24.7856C32.0739 24.0486 31.199 23.464 30.236 23.0651C29.2731 22.6662 28.241 22.4609 27.1987 22.4609C26.1564 22.4609 25.1243 22.6662 24.1613 23.0651C23.1983 23.464 22.3234 24.0486 21.5864 24.7856C20.8493 25.5226 20.2647 26.3976 19.8658 27.3606C19.467 28.3235 19.2617 29.3556 19.2617 30.3979Z" stroke="#CAB8FF" stroke-width="1.75" stroke-linecap="round" stroke-linejoin="round"/>
<path d="M27.1992 3.18164V8.85249" stroke="#CAB8FF" stroke-width="1.75" stroke-linecap="round" stroke-linejoin="round"/>
<path d="M33.0681 7.90332L32.625 9.60348" stroke="#CAB8FF" stroke-width="1.75" stroke-linecap="round" stroke-linejoin="round"/>
<path d="M46.806 10.7568L42.2715 15.3374" stroke="#CAB8FF" stroke-width="1.75" stroke-linecap="round" stroke-linejoin="round"/>
<path d="M52.1459 24.0049L47.6992 25.15" stroke="#CAB8FF" stroke-width="1.75" stroke-linecap="round" stroke-linejoin="round"/>
<path d="M21.332 7.90332L21.7752 9.60348" stroke="#CAB8FF" stroke-width="1.75" stroke-linecap="round" stroke-linejoin="round"/>
<path d="M7.5918 10.7568L12.1263 15.3374" stroke="#CAB8FF" stroke-width="1.75" stroke-linecap="round" stroke-linejoin="round"/>
<path d="M2.25195 24.0049L6.69869 25.15" stroke="#CAB8FF" stroke-width="1.75" stroke-linecap="round" stroke-linejoin="round"/>
<path d="M52.1459 36.7906L47.6992 35.6455" stroke="#CAB8FF" stroke-width="1.75" stroke-linecap="round" stroke-linejoin="round"/>
<path d="M2.25195 36.7906L6.69869 35.6455" stroke="#CAB8FF" stroke-width="1.75" stroke-linecap="round" stroke-linejoin="round"/>
<path d="M14.7266 8.52832L16.4267 11.7378" stroke="#CAB8FF" stroke-width="1.75" stroke-linecap="round" stroke-linejoin="round"/>
<path d="M3.62891 16.79L8.53853 19.6244" stroke="#CAB8FF" stroke-width="1.75" stroke-linecap="round" stroke-linejoin="round"/>
<path d="M2.25195 30.3975H5.65446" stroke="#CAB8FF" stroke-width="1.75" stroke-linecap="round" stroke-linejoin="round"/>
<path d="M3.62891 44.0052L8.53853 41.1709" stroke="#CAB8FF" stroke-width="1.75" stroke-linecap="round" stroke-linejoin="round"/>
<path d="M39.9954 7.91992L37.9727 11.7371" stroke="#CAB8FF" stroke-width="1.75" stroke-linecap="round" stroke-linejoin="round"/>
<path d="M49.9244 17.2764L45.8594 19.6237" stroke="#CAB8FF" stroke-width="1.75" stroke-linecap="round" stroke-linejoin="round"/>
<path d="M52.1466 30.3975H48.7441" stroke="#CAB8FF" stroke-width="1.75" stroke-linecap="round" stroke-linejoin="round"/>
<path d="M50.769 44.0052L45.8594 41.1709" stroke="#CAB8FF" stroke-width="1.75" stroke-linecap="round" stroke-linejoin="round"/>
</svg>
